<?xml version="1.0" encoding="UTF-8" standalone="no"?>
<!DOCTYPE svg PUBLIC "-//W3C//DTD SVG 1.1//EN" "http://www.w3.org/Graphics/SVG/1.1/DTD/svg11.dtd">
<svg width="155px" height="45px" version="1.1" xmlns="http://www.w3.org/2000/svg" xmlns:xlink="http://www.w3.org/1999/xlink" xml:space="preserve" xmlns:serif="http://www.serif.com/" style="fill-rule:evenodd;clip-rule:evenodd;stroke-linejoin:round;stroke-miterlimit:2;">
    <path d="M22.245,0.255C9.959,0.255 0,10.215 0,22.5C0,34.785 9.959,44.745 22.245,44.745C34.531,44.745 44.491,34.785 44.491,22.5C44.491,10.215 34.531,0.255 22.245,0.255ZM22.245,2.5C27.586,2.5 32.609,4.58 36.388,8.356C40.165,12.134 42.245,17.158 42.245,22.5C42.245,27.841 40.164,32.866 36.388,36.643C32.61,40.418 27.588,42.5 22.245,42.5C16.904,42.5 11.881,40.42 8.103,36.643C4.327,32.867 2.245,27.843 2.245,22.5C2.245,17.158 4.326,12.135 8.102,8.357C11.881,4.58 16.904,2.5 22.245,2.5ZM80.159,24.215C79.392,24.016 77.961,23.649 76.629,22.75C74.764,21.518 73.731,19.719 73.631,17.486C73.531,15.622 74.131,13.99 75.33,12.724C77.061,10.925 79.56,10.425 80.758,10.425C84.154,10.425 86.055,11.657 87.753,12.756L88.52,13.256L86.087,17.22L85.255,16.687C83.755,15.722 82.79,15.088 80.758,15.088C80.458,15.088 79.292,15.321 78.694,15.954C78.496,16.153 78.262,16.518 78.297,17.286C78.33,18.485 79.162,19.151 81.294,19.682C81.562,19.749 81.76,19.817 81.96,19.882C84.19,20.649 85.924,21.68 87.123,22.979C88.321,24.312 88.954,25.877 88.954,27.542C88.954,29.174 88.255,30.873 87.09,32.172C85.726,33.703 83.825,34.568 81.728,34.568C80.697,34.568 79.295,34.503 77.631,34.003C75.533,33.337 73.668,32.172 72.069,30.473L75.466,27.276C77.931,29.909 80.695,29.909 81.728,29.909C83.661,29.909 84.291,28.143 84.291,27.545C84.291,26.278 82.858,25.112 80.429,24.278L80.328,24.247L80.159,24.215ZM109.068,10.76L109.068,15.423L102.607,15.423L102.607,34.108L97.945,34.108L97.945,15.423L91.451,15.423L91.451,10.76L109.068,10.76ZM64.538,29.777L54.879,29.777L52.681,34.107L47.452,34.107L59.342,10.757L60.708,10.757L71.732,34.107L66.57,34.107L64.538,29.777ZM123.925,34.107L119.563,24.748L117.231,24.748L117.231,34.074L112.569,34.074L112.569,10.727L121.362,10.727C125.225,10.727 128.356,13.891 128.356,17.754C128.356,20.585 126.69,23.018 124.258,24.115L128.887,34.107L123.925,34.107ZM147.807,29.777L138.147,29.777L135.952,34.107L130.723,34.107L142.612,10.758L143.977,10.758L155,34.107L149.838,34.107L147.807,29.777ZM27,19.988C25.445,23.217 23.89,26.447 22.335,29.676L22.245,29.856L26.82,29.856C27.418,31.231 28.016,32.608 28.614,33.983L33.816,33.983C31.544,29.316 29.271,24.652 27,19.988ZM21.978,10.123C21.978,10.122 21.977,10.122 21.978,10.123C18.21,18.074 14.442,26.029 10.675,33.98L15.519,33.98C18.567,27.824 21.617,21.666 24.666,15.506L21.978,10.123ZM62.34,25.114L59.909,19.919L57.278,25.114L62.34,25.114ZM145.607,25.114L143.174,19.919L140.542,25.114L145.607,25.114ZM117.23,15.391L117.23,20.086L121.359,20.086C122.659,20.086 123.691,19.053 123.691,17.754C123.691,16.455 122.659,15.391 121.359,15.391L117.23,15.391Z" style="fill-rule:nonzero;"/>
</svg>
